<svg width="26" height="25" viewBox="0 0 26 25" fill="none" xmlns="http://www.w3.org/2000/svg">
<g clip-path="url(#clip0_4111_420)">
<path d="M22.0329 0.0447388H4.30024C2.31813 0.0447388 0.711304 1.65156 0.711304 3.63368V21.3663C0.711304 23.3484 2.31813 24.9553 4.30024 24.9553H22.0329C24.015 24.9553 25.6218 23.3484 25.6218 21.3663V3.63368C25.6218 1.65156 24.015 0.0447388 22.0329 0.0447388Z" stroke="#048C80" stroke-miterlimit="10"/>
<path d="M22.1144 12.4669V12.4714H19.3146V12.3998C19.3146 9.07211 16.6169 6.37436 13.2901 6.37436C13.2543 6.37436 13.2185 6.37436 13.1827 6.37526V3.55225C18.1058 3.56119 22.0965 7.54563 22.1144 12.4669Z" fill="url(#paint0_linear_4111_420)"/>
<path d="M22.1126 12.356C22.1126 12.3005 22.1099 12.2459 22.109 12.1904C22.1108 12.2459 22.1117 12.3005 22.1126 12.356Z" fill="url(#paint1_linear_4111_420)"/>
<path d="M22.1072 12.1457C22.1054 12.0786 22.1 12.0124 22.0964 11.9453C22.0964 11.9551 22.0982 11.964 22.0982 11.9739C22.1027 12.0312 22.1054 12.0884 22.1072 12.1457Z" fill="url(#paint2_linear_4111_420)"/>
<path d="M22.0706 11.6177C22.0706 11.6177 22.0706 11.6159 22.0706 11.6151C22.0723 11.6383 22.0759 11.6625 22.0777 11.6857C22.0768 11.6714 22.075 11.658 22.0732 11.6446C22.0723 11.6356 22.0715 11.6267 22.0706 11.6177Z" fill="url(#paint3_linear_4111_420)"/>
<path d="M22.0705 11.615C22.0669 11.5739 22.0616 11.5336 22.058 11.4933C22.0607 11.5112 22.0625 11.5282 22.0651 11.5461C22.0678 11.5694 22.0696 11.5918 22.0714 11.615H22.0705Z" fill="url(#paint4_linear_4111_420)"/>
<path d="M22.0785 11.7C22.0785 11.6947 22.0776 11.6902 22.0776 11.6857C22.0803 11.7045 22.0821 11.7233 22.083 11.7421C22.0839 11.7537 22.0848 11.7645 22.0848 11.7761C22.083 11.751 22.0812 11.7251 22.0785 11.7Z" fill="url(#paint5_linear_4111_420)"/>
<path d="M22.0079 11.1167C22.007 11.1104 22.0061 11.1042 22.0052 11.0979C22.0052 11.1024 22.007 11.1068 22.007 11.1104C22.007 11.1122 22.007 11.114 22.007 11.1167H22.0079Z" fill="url(#paint6_linear_4111_420)"/>
<path d="M22.0079 11.1194C22.0079 11.1194 22.0079 11.1176 22.0079 11.1167C22.0169 11.1775 22.0276 11.2384 22.0348 11.3001V11.3037C22.0258 11.242 22.0178 11.1811 22.0079 11.1194Z" fill="url(#paint7_linear_4111_420)"/>
<path d="M22.1143 12.4669C22.1143 12.4293 22.1134 12.3926 22.1125 12.356C22.1125 12.3819 22.1143 12.407 22.1143 12.4329V12.4669Z" fill="url(#paint8_linear_4111_420)"/>
<path d="M22.1144 21.4191V21.4478H19.3137C19.3146 21.4272 19.3146 21.4066 19.3146 21.386C19.3146 20.6621 19.1867 19.9678 18.9522 19.3245C18.9469 19.3075 18.9406 19.2905 18.9335 19.2734C18.5952 18.3679 18.044 17.5653 17.3417 16.9265C17.3291 16.9148 17.3166 16.9041 17.3041 16.8934C16.2384 15.9404 14.8318 15.3606 13.2901 15.3606C13.2543 15.3606 13.2185 15.3606 13.1827 15.3615V12.4714C15.3651 12.475 17.364 13.2606 18.9147 14.5625C18.9209 14.5669 18.9272 14.5723 18.9335 14.5786C19.7182 15.2398 20.3875 16.0344 20.9055 16.9265C20.9127 16.9372 20.919 16.9479 20.9252 16.9596C21.6822 18.2722 22.1144 19.7951 22.1144 21.4191Z" fill="url(#paint9_linear_4111_420)"/>
<path d="M13.1666 12.4669V12.4714H10.3669V12.4329C10.3669 10.8885 9.78526 9.48102 8.83054 8.41445C8.8207 8.40282 8.81085 8.39208 8.80101 8.38134C8.13083 7.64405 7.2799 7.07408 6.31891 6.74122C6.30459 6.73496 6.29028 6.73049 6.27506 6.72512C5.66841 6.52021 5.0188 6.40837 4.34235 6.40837C4.30119 6.40837 4.26003 6.40837 4.21887 6.41016V3.55225H4.98569C6.31622 3.66409 7.56354 4.06853 8.66411 4.70024C8.6838 4.71098 8.70259 4.72172 8.72138 4.73335C9.63852 5.26842 10.4519 5.96187 11.1247 6.77612C11.1382 6.79312 11.1516 6.81012 11.1659 6.82712C12.4168 8.36524 13.1666 10.3284 13.1666 12.4669Z" fill="url(#paint10_linear_4111_420)"/>
<path d="M13.1827 18.4905V21.3806H13.1666C11.5488 21.3806 10.0304 20.9512 8.72134 20.1995C8.32406 19.9723 7.94557 19.7146 7.58945 19.43C7.10806 19.0462 6.66783 18.614 6.27592 18.1407C5.96096 17.7613 5.67642 17.3551 5.42767 16.9265C4.66443 15.6165 4.22599 14.0954 4.21973 12.4714H7.26464C7.26464 13.1541 7.37918 13.8109 7.58945 14.422C7.85341 15.1924 8.26858 15.8921 8.80097 16.4853C8.93877 16.6392 9.08462 16.7869 9.23762 16.9265C9.79507 17.432 10.4474 17.8355 11.1659 18.1058C11.7949 18.3438 12.474 18.478 13.1827 18.4905Z" fill="url(#paint11_linear_4111_420)"/>
</g>
<defs>
<linearGradient id="paint0_linear_4111_420" x1="22.1144" y1="3.55225" x2="9.43338" y2="12.7561" gradientUnits="userSpaceOnUse">
<stop stop-color="#AAD9D1"/>
<stop offset="1" stop-color="#017373"/>
</linearGradient>
<linearGradient id="paint1_linear_4111_420" x1="22.1126" y1="12.1904" x2="22.1048" y2="12.1906" gradientUnits="userSpaceOnUse">
<stop stop-color="#AAD9D1"/>
<stop offset="1" stop-color="#017373"/>
</linearGradient>
<linearGradient id="paint2_linear_4111_420" x1="22.1072" y1="11.9453" x2="22.0839" y2="11.9462" gradientUnits="userSpaceOnUse">
<stop stop-color="#AAD9D1"/>
<stop offset="1" stop-color="#017373"/>
</linearGradient>
<linearGradient id="paint3_linear_4111_420" x1="22.0777" y1="11.6151" x2="22.0623" y2="11.6162" gradientUnits="userSpaceOnUse">
<stop stop-color="#AAD9D1"/>
<stop offset="1" stop-color="#017373"/>
</linearGradient>
<linearGradient id="paint4_linear_4111_420" x1="22.0714" y1="11.4933" x2="22.0425" y2="11.4957" gradientUnits="userSpaceOnUse">
<stop stop-color="#AAD9D1"/>
<stop offset="1" stop-color="#017373"/>
</linearGradient>
<linearGradient id="paint5_linear_4111_420" x1="22.0848" y1="11.6857" x2="22.0693" y2="11.6866" gradientUnits="userSpaceOnUse">
<stop stop-color="#AAD9D1"/>
<stop offset="1" stop-color="#017373"/>
</linearGradient>
<linearGradient id="paint6_linear_4111_420" x1="22.0079" y1="11.0979" x2="22.0022" y2="11.0985" gradientUnits="userSpaceOnUse">
<stop stop-color="#AAD9D1"/>
<stop offset="1" stop-color="#017373"/>
</linearGradient>
<linearGradient id="paint7_linear_4111_420" x1="22.0348" y1="11.1167" x2="21.9772" y2="11.1227" gradientUnits="userSpaceOnUse">
<stop stop-color="#AAD9D1"/>
<stop offset="1" stop-color="#017373"/>
</linearGradient>
<linearGradient id="paint8_linear_4111_420" x1="22.1143" y1="12.356" x2="22.1105" y2="12.356" gradientUnits="userSpaceOnUse">
<stop stop-color="#AAD9D1"/>
<stop offset="1" stop-color="#017373"/>
</linearGradient>
<linearGradient id="paint9_linear_4111_420" x1="22.1144" y1="12.4714" x2="9.37749" y2="21.6568" gradientUnits="userSpaceOnUse">
<stop stop-color="#AAD9D1"/>
<stop offset="1" stop-color="#017373"/>
</linearGradient>
<linearGradient id="paint10_linear_4111_420" x1="13.1666" y1="3.55225" x2="0.478553" y2="12.7778" gradientUnits="userSpaceOnUse">
<stop stop-color="#AAD9D1"/>
<stop offset="1" stop-color="#017373"/>
</linearGradient>
<linearGradient id="paint11_linear_4111_420" x1="13.1827" y1="12.4714" x2="0.497711" y2="21.7206" gradientUnits="userSpaceOnUse">
<stop stop-color="#AAD9D1"/>
<stop offset="1" stop-color="#017373"/>
</linearGradient>
<clipPath id="clip0_4111_420">
<rect width="25" height="25" fill="white" transform="translate(0.666626)"/>
</clipPath>
</defs>
</svg>
