<svg width="129" height="48" viewBox="0 0 129 48" fill="none" xmlns="http://www.w3.org/2000/svg">
<g clip-path="url(#clip0_4111_184)">
<path fill-rule="evenodd" clip-rule="evenodd" d="M34.3223 20.6741C33.6645 20.2346 32.8912 20 32.1 20V16C33.6823 16 35.229 16.4692 36.5446 17.3482C37.8602 18.2273 38.8856 19.4767 39.4911 20.9385C40.0966 22.4003 40.255 24.0089 39.9463 25.5607C39.6376 27.1126 38.8757 28.538 37.7569 29.6568C36.6381 30.7757 35.2126 31.5376 33.6608 31.8463C32.1089 32.155 30.5004 31.9965 29.0386 31.391C27.5768 30.7855 26.3273 29.7602 25.4483 28.4446C24.5692 27.129 24.1 25.5822 24.1 24H28.1C28.1 24.7911 28.3346 25.5645 28.7742 26.2223C29.2137 26.8801 29.8384 27.3928 30.5693 27.6955C31.3002 27.9983 32.1045 28.0775 32.8804 27.9231C33.6563 27.7688 34.369 27.3878 34.9285 26.8284C35.4879 26.269 35.8688 25.5563 36.0232 24.7804C36.1775 24.0044 36.0983 23.2002 35.7956 22.4693C35.4928 21.7384 34.9801 21.1136 34.3223 20.6741Z" fill="#AAD9D1"/>
<path fill-rule="evenodd" clip-rule="evenodd" d="M28.1 16C28.1 16.5253 27.9966 17.0454 27.7956 17.5307C27.5945 18.016 27.2999 18.457 26.9285 18.8284C26.557 19.1999 26.1161 19.4945 25.6308 19.6955C25.1455 19.8965 24.6253 20 24.1 20L24.1 24C25.1506 24 26.1909 23.7931 27.1615 23.391C28.1321 22.989 29.014 22.3997 29.7569 21.6568C30.4998 20.914 31.089 20.0321 31.4911 19.0615C31.8931 18.0909 32.1 17.0506 32.1 16L28.1 16Z" fill="#AAD9D1"/>
<path d="M74.3477 21.781H72.4069V27.9459H74.3477V21.781Z" fill="#AAD9D1"/>
<path d="M72.6228 20.6267C72.8256 20.8296 73.0792 20.9311 73.3836 20.9311C73.688 20.9311 73.9376 20.8296 74.132 20.6267C74.3268 20.4153 74.424 20.1616 74.424 19.8656C74.424 19.5612 74.3268 19.3074 74.132 19.1045C73.9376 18.9015 73.688 18.8 73.3836 18.8C73.0792 18.8 72.8256 18.9015 72.6228 19.1045C72.428 19.3074 72.3308 19.5612 72.3308 19.8656C72.3308 20.1616 72.428 20.4153 72.6228 20.6267Z" fill="#AAD9D1"/>
<path d="M44.5625 27.9459V18.9902H46.5541V26.1954H50.5245V27.9459H44.5625Z" fill="#AAD9D1"/>
<path fill-rule="evenodd" clip-rule="evenodd" d="M54.111 28.0854C53.4768 28.0854 52.9017 27.9458 52.3859 27.6668C51.8785 27.3792 51.4768 26.9902 51.1808 26.4997C50.8848 26.0092 50.7368 25.4596 50.7368 24.8507C50.7368 24.2418 50.8848 23.6964 51.1808 23.2143C51.4768 22.7323 51.8785 22.3517 52.3859 22.0727C52.8933 21.7851 53.4683 21.6414 54.111 21.6414C54.7537 21.6414 55.3288 21.7809 55.8362 22.06C56.3436 22.339 56.7453 22.7238 57.0413 23.2143C57.3373 23.6964 57.4853 24.2418 57.4853 24.8507C57.4853 25.4596 57.3373 26.0092 57.0413 26.4997C56.7453 26.9902 56.3436 27.3792 55.8362 27.6668C55.3288 27.9458 54.7537 28.0854 54.111 28.0854ZM54.111 26.3222C54.3901 26.3222 54.6353 26.263 54.8468 26.1446C55.0582 26.0177 55.2189 25.8444 55.3288 25.6245C55.4472 25.3962 55.5064 25.1382 55.5064 24.8507C55.5064 24.5632 55.4472 24.3137 55.3288 24.1023C55.2104 23.8824 55.0455 23.7133 54.8341 23.5949C54.6311 23.468 54.3901 23.4046 54.111 23.4046C53.8404 23.4046 53.5994 23.468 53.388 23.5949C53.1766 23.7133 53.0117 23.8824 52.8933 24.1023C52.7749 24.3222 52.7157 24.5758 52.7157 24.8634C52.7157 25.1424 52.7749 25.3962 52.8933 25.6245C53.0117 25.8444 53.1766 26.0177 53.388 26.1446C53.5994 26.263 53.8404 26.3222 54.111 26.3222Z" fill="#AAD9D1"/>
<path fill-rule="evenodd" clip-rule="evenodd" d="M59.0223 30.356C59.5382 30.5928 60.1344 30.7112 60.8109 30.7112C61.4705 30.7112 62.0583 30.5801 62.5741 30.3179C63.09 30.0558 63.4959 29.6922 63.7919 29.2271C64.0878 28.7619 64.236 28.2123 64.236 27.578V21.7809H62.3331V22.1951C62.1916 22.076 62.0308 21.976 61.8511 21.8951C61.5212 21.7344 61.1449 21.6541 60.7221 21.6541C60.1555 21.6541 59.6523 21.7894 59.2126 22.06C58.7728 22.3221 58.4261 22.6858 58.1724 23.1509C57.9187 23.6076 57.7919 24.1234 57.7919 24.6985C57.7919 25.2651 57.9187 25.7809 58.1724 26.2461C58.4261 26.7112 58.7728 27.0791 59.2126 27.3497C59.6523 27.6203 60.1555 27.7556 60.7221 27.7556C61.1365 27.7556 61.5128 27.6753 61.8511 27.5146C62.0149 27.4367 62.1629 27.345 62.295 27.2394V27.6287C62.295 28.06 62.1555 28.3941 61.8764 28.6309C61.6058 28.8677 61.2295 28.986 60.7475 28.986C60.3585 28.986 60.0244 28.9184 59.7453 28.7831C59.4747 28.6478 59.2295 28.449 59.0096 28.1869L57.8172 29.3793C58.1132 29.8021 58.5149 30.1277 59.0223 30.356ZM61.7876 25.8528C61.5931 25.9712 61.3606 26.0304 61.09 26.0304C60.8194 26.0304 60.5825 25.9712 60.3796 25.8528C60.1851 25.7344 60.0329 25.5737 59.9229 25.3708C59.813 25.1594 59.758 24.9353 59.758 24.6985C59.758 24.4448 59.813 24.2165 59.9229 24.0135C60.0329 23.8105 60.1893 23.6499 60.3923 23.5315C60.5952 23.4131 60.8278 23.3539 61.09 23.3539C61.3606 23.3539 61.5931 23.4131 61.7876 23.5315C61.9906 23.6499 62.1428 23.8105 62.2443 24.0135C62.3542 24.2165 62.4092 24.4448 62.4092 24.6985C62.4092 24.9522 62.3542 25.1805 62.2443 25.3835C62.1428 25.578 61.9906 25.7344 61.7876 25.8528Z" fill="#AAD9D1"/>
<path fill-rule="evenodd" clip-rule="evenodd" d="M68.3204 28.0854C67.686 28.0854 67.1108 27.9458 66.5952 27.6668C66.0876 27.3792 65.686 26.9902 65.39 26.4997C65.094 26.0092 64.946 25.4596 64.946 24.8507C64.946 24.2418 65.094 23.6964 65.39 23.2143C65.686 22.7323 66.0876 22.3517 66.5952 22.0727C67.1024 21.7851 67.6776 21.6414 68.3204 21.6414C68.9628 21.6414 69.538 21.7809 70.0452 22.06C70.5528 22.339 70.9544 22.7238 71.2504 23.2143C71.5464 23.6964 71.6944 24.2418 71.6944 24.8507C71.6944 25.4596 71.5464 26.0092 71.2504 26.4997C70.9544 26.9902 70.5528 27.3792 70.0452 27.6668C69.538 27.9458 68.9628 28.0854 68.3204 28.0854ZM68.3204 26.3222C68.5992 26.3222 68.8444 26.263 69.056 26.1446C69.2672 26.0177 69.428 25.8444 69.538 25.6245C69.6564 25.3962 69.7156 25.1382 69.7156 24.8507C69.7156 24.5632 69.6564 24.3137 69.538 24.1023C69.4196 23.8824 69.2548 23.7133 69.0432 23.5949C68.8404 23.468 68.5992 23.4046 68.3204 23.4046C68.0496 23.4046 67.8084 23.468 67.5972 23.5949C67.3856 23.7133 67.2208 23.8824 67.1024 24.1023C66.984 24.3222 66.9248 24.5758 66.9248 24.8634C66.9248 25.1424 66.984 25.3962 67.1024 25.6245C67.2208 25.8444 67.3856 26.0177 67.5972 26.1446C67.8084 26.263 68.0496 26.3222 68.3204 26.3222Z" fill="#AAD9D1"/>
<path fill-rule="evenodd" clip-rule="evenodd" d="M79.0124 28.0727C78.5984 28.0727 78.2176 27.9924 77.8708 27.8317C77.6884 27.7471 77.5236 27.6462 77.3764 27.5288V30.5463H75.4608V21.7809H77.4016V22.2064C77.5424 22.0913 77.6988 21.9917 77.8708 21.9078C78.2176 21.7386 78.5984 21.6541 79.0124 21.6541C79.596 21.6541 80.112 21.7936 80.56 22.0727C81.0168 22.3517 81.372 22.7323 81.6256 23.2143C81.888 23.6964 82.0188 24.2461 82.0188 24.8634C82.0188 25.4807 81.888 26.0304 81.6256 26.5125C81.372 26.9945 81.0168 27.375 80.56 27.6541C80.112 27.9332 79.596 28.0727 79.0124 28.0727ZM78.6576 26.3222C78.9364 26.3222 79.1776 26.2587 79.3804 26.1319C79.592 26.0051 79.7568 25.8317 79.8752 25.6118C79.9936 25.3919 80.0528 25.1425 80.0528 24.8634C80.0528 24.5759 79.9936 24.3222 79.8752 24.1023C79.7568 23.8824 79.592 23.7133 79.3804 23.5949C79.1776 23.468 78.9408 23.4046 78.67 23.4046C78.3996 23.4046 78.1584 23.468 77.9472 23.5949C77.744 23.7133 77.5836 23.8824 77.4652 24.1023C77.3468 24.3222 77.2876 24.5759 77.2876 24.8634C77.2876 25.1425 77.3424 25.3919 77.4524 25.6118C77.5708 25.8317 77.7356 26.0051 77.9472 26.1319C78.1584 26.2587 78.3952 26.3222 78.6576 26.3222Z" fill="#AAD9D1"/>
<path d="M83.9184 27.9587C84.2736 28.0518 84.6328 28.0982 84.9964 28.0982C85.766 28.0982 86.3748 27.9207 86.8232 27.5655C87.2796 27.2103 87.508 26.7325 87.508 26.1321C87.508 25.7431 87.4364 25.4302 87.2924 25.1934C87.1488 24.9482 86.9628 24.7536 86.7344 24.6099C86.506 24.4661 86.2648 24.3519 86.0112 24.2674C85.7576 24.1828 85.5164 24.1109 85.2884 24.0517C85.06 23.9925 84.874 23.9249 84.73 23.8488C84.5864 23.7726 84.5144 23.6712 84.5144 23.5443C84.5144 23.4259 84.5696 23.3371 84.6792 23.2779C84.7892 23.2103 84.954 23.1765 85.174 23.1765C85.4024 23.1765 85.6348 23.223 85.8716 23.316C86.1168 23.409 86.3368 23.5697 86.5312 23.798L87.6348 22.6818C87.356 22.3266 86.9924 22.0602 86.544 21.8826C86.1044 21.6966 85.6224 21.6035 85.098 21.6035C84.5992 21.6035 84.1636 21.6881 83.7916 21.8572C83.4192 22.0264 83.1316 22.2589 82.9288 22.5549C82.726 22.8424 82.6244 23.1849 82.6244 23.5824C82.6244 23.9545 82.6964 24.2632 82.84 24.5084C82.9836 24.7452 83.17 24.9312 83.398 25.0665C83.6264 25.2018 83.8676 25.3076 84.1212 25.3836C84.3748 25.4598 84.616 25.5316 84.8444 25.5993C85.0724 25.6585 85.2588 25.7304 85.4024 25.815C85.5548 25.8911 85.6308 26.0052 85.6308 26.1574C85.6308 26.2758 85.5672 26.3688 85.4404 26.4365C85.322 26.5042 85.1488 26.538 84.9204 26.538C84.5904 26.538 84.286 26.4788 84.0072 26.3604C83.728 26.2336 83.4868 26.0602 83.284 25.8403L82.1804 26.9566C82.392 27.1849 82.6456 27.3879 82.9416 27.5655C83.246 27.7346 83.5716 27.8657 83.9184 27.9587Z" fill="#AAD9D1"/>
<path d="M91.0473 28.0854C90.4809 28.0854 89.9777 27.9713 89.5381 27.743C89.1065 27.5062 88.7685 27.1848 88.5233 26.7789C88.2777 26.3645 88.1553 25.891 88.1553 25.3582V21.781H90.0961V25.3328C90.0961 25.5442 90.1297 25.726 90.1977 25.8782C90.2737 26.0305 90.3837 26.1489 90.5273 26.2334C90.6713 26.318 90.8445 26.3603 91.0473 26.3603C91.3349 26.3603 91.5633 26.2715 91.7325 26.0939C91.9017 25.9078 91.9861 25.6542 91.9861 25.3328V21.781H93.9269V25.3455C93.9269 25.8867 93.8045 26.3645 93.5589 26.7789C93.3137 27.1848 92.9757 27.5062 92.5441 27.743C92.1129 27.9713 91.6141 28.0854 91.0473 28.0854Z" fill="#AAD9D1"/>
<path d="M96.8324 21.7809H94.8916V27.9459H96.8324V24.3433C96.8324 24.1319 96.8748 23.9543 96.9592 23.8105C97.0524 23.6668 97.1752 23.5568 97.3272 23.4807C97.4796 23.3961 97.6528 23.3539 97.8472 23.3539C98.1264 23.3539 98.3588 23.4427 98.5448 23.6203C98.7396 23.7894 98.8368 24.0304 98.8368 24.3433V27.9459H100.778V24.3433C100.778 24.1319 100.82 23.9543 100.904 23.8105C100.998 23.6668 101.12 23.5568 101.272 23.4807C101.424 23.3961 101.598 23.3539 101.792 23.3539C102.072 23.3539 102.304 23.4427 102.49 23.6203C102.684 23.7894 102.782 24.0304 102.782 24.3433V27.9459H104.723V24.1277C104.723 23.6118 104.613 23.1721 104.393 22.8084C104.181 22.4363 103.89 22.153 103.518 21.9585C103.154 21.7555 102.735 21.6541 102.262 21.6541C101.78 21.6541 101.344 21.7598 100.955 21.9712C100.702 22.1059 100.482 22.2797 100.292 22.4927C100.116 22.2699 99.9016 22.0877 99.6484 21.9458C99.3104 21.7513 98.9256 21.6541 98.4944 21.6541C98.0376 21.6541 97.6276 21.7513 97.264 21.9458C97.1056 22.0267 96.962 22.1237 96.8324 22.2366V21.7809Z" fill="#AAD9D1"/>
</g>
<defs>
<clipPath id="clip0_4111_184">
<rect width="80.8" height="16" fill="white" transform="translate(24.1 16)"/>
</clipPath>
</defs>
</svg>
