<svg width="40" height="41" viewBox="0 0 40 41" fill="none" xmlns="http://www.w3.org/2000/svg">
<rect y="0.27002" width="40" height="40" rx="20" fill="#017373"/>
<path d="M28.3333 15.1033C27.7069 15.375 27.0445 15.5547 26.3666 15.6366C27.0818 15.2094 27.6177 14.5373 27.875 13.745C27.2029 14.145 26.4673 14.4269 25.7 14.5783C25.1871 14.0221 24.5041 13.6519 23.7581 13.5257C23.0122 13.3995 22.2454 13.5244 21.5781 13.8809C20.9108 14.2375 20.3807 14.8054 20.071 15.4956C19.7612 16.1859 19.6894 16.9594 19.8666 17.695C18.5078 17.6262 17.1787 17.2724 15.9655 16.6565C14.7523 16.0406 13.6823 15.1764 12.825 14.1199C12.5242 14.6451 12.3662 15.2398 12.3666 15.845C12.3656 16.4069 12.5035 16.9605 12.7681 17.4563C13.0327 17.952 13.4158 18.3747 13.8833 18.6866C13.3399 18.6718 12.8082 18.526 12.3333 18.2616V18.3033C12.3374 19.0907 12.6133 19.8525 13.1144 20.4599C13.6155 21.0673 14.311 21.483 15.0833 21.6366C14.786 21.7271 14.4774 21.7748 14.1666 21.7783C13.9515 21.7758 13.737 21.7563 13.525 21.72C13.7449 22.3973 14.1705 22.9892 14.7425 23.4134C15.3146 23.8376 16.0046 24.0729 16.7166 24.0866C15.5143 25.0327 14.0299 25.549 12.5 25.5533C12.2214 25.5542 11.9431 25.5375 11.6666 25.5033C13.2286 26.5118 15.049 27.0472 16.9083 27.045C18.1914 27.0583 19.4642 26.8158 20.6526 26.3317C21.8409 25.8476 22.9208 25.1315 23.8293 24.2254C24.7378 23.3192 25.4566 22.2411 25.9438 21.054C26.4309 19.867 26.6767 18.5947 26.6666 17.3116C26.6666 17.1699 26.6666 17.02 26.6666 16.87C27.3205 16.3823 27.8845 15.7845 28.3333 15.1033Z" fill="#EFECE6"/>
</svg>
