<svg width="138" height="20" viewBox="0 0 138 20" fill="none" xmlns="http://www.w3.org/2000/svg">
<path d="M7.296 19.1199C6.144 19.1199 5.16 18.9839 4.344 18.7119C3.544 18.4239 2.872 18.0639 2.328 17.6319C1.8 17.1839 1.376 16.7199 1.056 16.2399C0.736 15.7439 0.496 15.2799 0.336 14.8479C0.192 14.3999 0.096 14.0399 0.048 13.7679C0.016 13.4799 0 13.3359 0 13.3359H3.744C3.744 13.3359 3.776 13.4719 3.84 13.7439C3.92 14.0159 4.08 14.3359 4.32 14.7039C4.56 15.0559 4.928 15.3679 5.424 15.6399C5.92 15.8959 6.592 16.0239 7.44 16.0239C8.48 16.0239 9.248 15.8079 9.744 15.3759C10.24 14.9279 10.488 14.3999 10.488 13.7919C10.488 13.2479 10.296 12.8159 9.912 12.4959C9.544 12.1759 8.968 11.9359 8.184 11.7759L5.808 11.3199C4.848 11.1439 3.952 10.8639 3.12 10.4799C2.304 10.0959 1.64 9.56788 1.128 8.89588C0.616 8.20788 0.36 7.32788 0.36 6.25588C0.36 5.16788 0.632 4.22388 1.176 3.42388C1.72 2.60788 2.48 1.98388 3.456 1.55188C4.448 1.10388 5.608 0.879883 6.936 0.879883C8.184 0.879883 9.216 1.06388 10.032 1.43188C10.864 1.78388 11.52 2.22388 12 2.75188C12.496 3.26388 12.856 3.78388 13.08 4.31188C13.32 4.83988 13.472 5.27988 13.536 5.63188C13.616 5.98388 13.656 6.15988 13.656 6.15988H10.008C10.008 6.15988 9.976 6.04788 9.912 5.82388C9.864 5.59988 9.736 5.34388 9.528 5.05588C9.32 4.76788 9 4.51188 8.568 4.28788C8.152 4.06388 7.576 3.95188 6.84 3.95188C5.832 3.95188 5.104 4.17588 4.656 4.62388C4.208 5.05588 3.984 5.52788 3.984 6.03988C3.984 6.56788 4.208 6.97588 4.656 7.26388C5.104 7.55188 5.688 7.76788 6.408 7.91188L8.928 8.41588C9.888 8.59188 10.768 8.88788 11.568 9.30388C12.368 9.71988 13 10.2799 13.464 10.9839C13.944 11.6719 14.184 12.5279 14.184 13.5519C14.184 14.6079 13.92 15.5599 13.392 16.4079C12.864 17.2399 12.088 17.9039 11.064 18.3999C10.04 18.8799 8.784 19.1199 7.296 19.1199Z" fill="#EFECE6"/>
<path d="M15.6964 18.8799V6.15988H19.3444V7.88788H19.4644C19.7364 7.42388 20.1444 6.98388 20.6884 6.56788C21.2324 6.13588 21.9764 5.91988 22.9204 5.91988C23.8804 5.91988 24.6484 6.14388 25.2244 6.59188C25.8164 7.03988 26.2484 7.59188 26.5204 8.24788H26.5684C26.7764 7.87988 27.0484 7.51988 27.3844 7.16788C27.7364 6.79988 28.1684 6.50388 28.6804 6.27988C29.2084 6.03988 29.8244 5.91988 30.5284 5.91988C31.4084 5.91988 32.1364 6.11988 32.7124 6.51988C33.2884 6.91988 33.7124 7.44788 33.9844 8.10388C34.2724 8.74388 34.4164 9.43188 34.4164 10.1679V18.8799H30.7684V11.0799C30.7684 10.4559 30.6084 9.94388 30.2884 9.54388C29.9844 9.12788 29.5204 8.91988 28.8964 8.91988C28.4164 8.91988 28.0244 9.03988 27.7204 9.27988C27.4324 9.51988 27.2164 9.83188 27.0724 10.2159C26.9444 10.5839 26.8804 10.9679 26.8804 11.3679V18.8799H23.2324V11.0799C23.2324 10.4559 23.0724 9.94388 22.7524 9.54388C22.4484 9.12788 21.9844 8.91988 21.3604 8.91988C20.8804 8.91988 20.4884 9.03988 20.1844 9.27988C19.8964 9.51988 19.6804 9.83188 19.5364 10.2159C19.4084 10.5839 19.3444 10.9679 19.3444 11.3679V18.8799H15.6964Z" fill="#EFECE6"/>
<path d="M41.7754 5.91988C42.5914 5.91988 43.2634 6.05588 43.7914 6.32788C44.3194 6.58388 44.7194 6.86388 44.9914 7.16788C45.2794 7.47188 45.4554 7.67988 45.5194 7.79188H45.7114V6.15988H49.3594V18.8799H45.7114V17.2479H45.5194C45.4554 17.3599 45.2794 17.5679 44.9914 17.8719C44.7194 18.1759 44.3194 18.4639 43.7914 18.7359C43.2634 18.9919 42.5914 19.1199 41.7754 19.1199C40.8314 19.1199 40.0074 18.9359 39.3034 18.5679C38.6154 18.1839 38.0394 17.6799 37.5754 17.0559C37.1114 16.4159 36.7594 15.7039 36.5194 14.9199C36.2954 14.1359 36.1834 13.3359 36.1834 12.5199C36.1834 11.7039 36.2954 10.9039 36.5194 10.1199C36.7594 9.33588 37.1114 8.63188 37.5754 8.00788C38.0394 7.36788 38.6154 6.86388 39.3034 6.49588C40.0074 6.11188 40.8314 5.91988 41.7754 5.91988ZM42.8314 8.87188C42.1754 8.87188 41.6234 9.05588 41.1754 9.42388C40.7434 9.77588 40.4154 10.2319 40.1914 10.7919C39.9834 11.3519 39.8794 11.9279 39.8794 12.5199C39.8794 13.1119 39.9834 13.6879 40.1914 14.2479C40.4154 14.8079 40.7434 15.2719 41.1754 15.6399C41.6234 15.9919 42.1754 16.1679 42.8314 16.1679C43.4874 16.1679 44.0314 15.9919 44.4634 15.6399C44.9114 15.2719 45.2394 14.8079 45.4474 14.2479C45.6714 13.6879 45.7834 13.1119 45.7834 12.5199C45.7834 11.9279 45.6714 11.3519 45.4474 10.7919C45.2394 10.2319 44.9114 9.77588 44.4634 9.42388C44.0314 9.05588 43.4874 8.87188 42.8314 8.87188Z" fill="#EFECE6"/>
<path d="M51.4282 18.8799V6.15988H55.0522V8.00788H55.1722C55.3162 7.67188 55.5163 7.34388 55.7723 7.02388C56.0283 6.70388 56.3802 6.43988 56.8283 6.23188C57.2763 6.02388 57.8523 5.91988 58.5563 5.91988C58.9083 5.91988 59.1883 5.94388 59.3963 5.99188C59.6043 6.02388 59.7083 6.03988 59.7083 6.03988V9.63988C59.7083 9.63988 59.5883 9.61588 59.3483 9.56788C59.1243 9.51988 58.8283 9.49588 58.4603 9.49588C57.3242 9.49588 56.4762 9.80788 55.9162 10.4319C55.3562 11.0399 55.0763 12.0399 55.0763 13.4319V18.8799H51.4282Z" fill="#EFECE6"/>
<path d="M67.0659 19.1199C66.0739 19.1199 65.2819 18.9759 64.6899 18.6879C64.0979 18.3839 63.6499 18.0079 63.3459 17.5599C63.0419 17.0959 62.8419 16.6079 62.7459 16.0959C62.6499 15.5839 62.6019 15.1119 62.6019 14.6799V9.06388H60.4419V6.15988H62.6019V3.01588H66.2499V6.15988H68.9619V9.06388H66.2499V14.5839C66.2499 15.1119 66.3859 15.5199 66.6579 15.8079C66.9459 16.0959 67.4179 16.2399 68.0739 16.2399C68.3619 16.2399 68.6259 16.2159 68.8659 16.1679C69.1059 16.1199 69.2259 16.0959 69.2259 16.0959V18.9039C69.2259 18.9039 69.0099 18.9359 68.5779 18.9999C68.1459 19.0799 67.6419 19.1199 67.0659 19.1199Z" fill="#EFECE6"/>
<path d="M71.1814 18.8799V1.11988H74.5654L82.2214 12.4479V1.11988H85.8934V18.8799H82.4614L74.8534 7.86388V18.8799H71.1814Z" fill="#EFECE6"/>
<path d="M94.5613 19.1199C93.1373 19.1199 91.9293 18.8159 90.9373 18.2079C89.9453 17.5839 89.1853 16.7759 88.6573 15.7839C88.1453 14.7759 87.8893 13.6879 87.8893 12.5199C87.8893 11.3519 88.1453 10.2719 88.6573 9.27988C89.1853 8.27188 89.9453 7.46388 90.9373 6.85588C91.9293 6.23188 93.1373 5.91988 94.5613 5.91988C95.9853 5.91988 97.1933 6.23188 98.1853 6.85588C99.1773 7.46388 99.9293 8.27188 100.441 9.27988C100.969 10.2719 101.233 11.3519 101.233 12.5199C101.233 13.6879 100.969 14.7759 100.441 15.7839C99.9293 16.7759 99.1773 17.5839 98.1853 18.2079C97.1933 18.8159 95.9853 19.1199 94.5613 19.1199ZM94.5613 16.1439C95.2013 16.1439 95.7373 15.9759 96.1693 15.6399C96.6173 15.3039 96.9613 14.8639 97.2013 14.3199C97.4413 13.7599 97.5613 13.1599 97.5613 12.5199C97.5613 11.8639 97.4413 11.2639 97.2013 10.7199C96.9613 10.1759 96.6173 9.73588 96.1693 9.39988C95.7373 9.06388 95.2013 8.89588 94.5613 8.89588C93.9213 8.89588 93.3773 9.06388 92.9293 9.39988C92.4813 9.73588 92.1373 10.1759 91.8973 10.7199C91.6733 11.2639 91.5613 11.8639 91.5613 12.5199C91.5613 13.1599 91.6733 13.7599 91.8973 14.3199C92.1373 14.8639 92.4813 15.3039 92.9293 15.6399C93.3773 15.9759 93.9213 16.1439 94.5613 16.1439Z" fill="#EFECE6"/>
<path d="M108.828 19.1199C107.836 19.1199 107.044 18.9759 106.452 18.6879C105.86 18.3839 105.412 18.0079 105.108 17.5599C104.804 17.0959 104.604 16.6079 104.508 16.0959C104.412 15.5839 104.364 15.1119 104.364 14.6799V9.06388H102.204V6.15988H104.364V3.01588H108.012V6.15988H110.724V9.06388H108.012V14.5839C108.012 15.1119 108.148 15.5199 108.42 15.8079C108.708 16.0959 109.18 16.2399 109.836 16.2399C110.124 16.2399 110.388 16.2159 110.628 16.1679C110.868 16.1199 110.988 16.0959 110.988 16.0959V18.9039C110.988 18.9039 110.772 18.9359 110.34 18.9999C109.908 19.0799 109.404 19.1199 108.828 19.1199Z" fill="#EFECE6"/>
<path d="M118.852 19.1199C117.732 19.1199 116.764 18.9359 115.948 18.5679C115.132 18.1839 114.46 17.6799 113.932 17.0559C113.404 16.4159 113.004 15.7039 112.732 14.9199C112.476 14.1359 112.348 13.3279 112.348 12.4959C112.348 11.6959 112.468 10.9119 112.708 10.1439C112.964 9.35988 113.348 8.64788 113.86 8.00788C114.388 7.36788 115.052 6.86388 115.852 6.49588C116.668 6.11188 117.628 5.91988 118.732 5.91988C119.9 5.91988 120.932 6.17588 121.828 6.68788C122.74 7.19988 123.452 7.95988 123.964 8.96788C124.476 9.95988 124.732 11.1679 124.732 12.5919V13.4799H116.02C116.068 14.2479 116.332 14.9119 116.812 15.4719C117.308 16.0319 117.988 16.3119 118.852 16.3119C119.348 16.3119 119.748 16.2399 120.052 16.0959C120.372 15.9359 120.62 15.7599 120.796 15.5679C120.972 15.3599 121.092 15.1759 121.156 15.0159C121.22 14.8559 121.252 14.7759 121.252 14.7759H124.612C124.612 14.7759 124.572 14.9279 124.492 15.2319C124.428 15.5199 124.284 15.8799 124.06 16.3119C123.836 16.7439 123.508 17.1759 123.076 17.6079C122.66 18.0399 122.108 18.3999 121.42 18.6879C120.732 18.9759 119.876 19.1199 118.852 19.1199ZM116.02 11.2719H121.228C121.18 10.3919 120.916 9.73588 120.436 9.30388C119.956 8.87188 119.364 8.65588 118.66 8.65588C117.956 8.65588 117.356 8.88788 116.86 9.35188C116.364 9.79988 116.084 10.4399 116.02 11.2719Z" fill="#EFECE6"/>
<path d="M131.984 19.1199C130.928 19.1199 130.056 18.9759 129.368 18.6879C128.68 18.3999 128.128 18.0479 127.712 17.6319C127.312 17.1999 127.008 16.7759 126.8 16.3599C126.608 15.9279 126.48 15.5679 126.416 15.2799C126.368 14.9919 126.344 14.8479 126.344 14.8479H129.728C129.728 14.8479 129.752 14.9279 129.8 15.0879C129.848 15.2479 129.952 15.4319 130.112 15.6399C130.288 15.8479 130.536 16.0319 130.856 16.1919C131.176 16.3519 131.608 16.4319 132.152 16.4319C132.824 16.4319 133.28 16.2959 133.52 16.0239C133.776 15.7519 133.904 15.4799 133.904 15.2079C133.904 14.6319 133.432 14.2479 132.488 14.0559L130.76 13.7199C130.024 13.5759 129.328 13.3679 128.672 13.0959C128.032 12.8079 127.512 12.4159 127.112 11.9199C126.728 11.4079 126.536 10.7519 126.536 9.95188C126.536 9.18388 126.736 8.49588 127.136 7.88788C127.536 7.27988 128.104 6.79988 128.84 6.44788C129.592 6.09588 130.488 5.91988 131.528 5.91988C132.504 5.91988 133.312 6.05588 133.952 6.32788C134.608 6.58388 135.128 6.91188 135.512 7.31188C135.896 7.69588 136.184 8.08788 136.376 8.48788C136.568 8.87188 136.688 9.19988 136.736 9.47188C136.8 9.72788 136.832 9.85588 136.832 9.85588H133.568C133.568 9.85588 133.52 9.75188 133.424 9.54388C133.328 9.31988 133.128 9.10388 132.824 8.89588C132.536 8.67188 132.088 8.55988 131.48 8.55988C130.856 8.55988 130.424 8.68788 130.184 8.94388C129.944 9.18388 129.824 9.43988 129.824 9.71188C129.824 10.0319 129.96 10.2719 130.232 10.4319C130.52 10.5919 130.888 10.7199 131.336 10.8159L132.992 11.1519C134.208 11.3919 135.208 11.8159 135.992 12.4239C136.776 13.0159 137.168 13.8799 137.168 15.0159C137.168 15.7839 136.968 16.4799 136.568 17.1039C136.168 17.7279 135.584 18.2239 134.816 18.5919C134.048 18.9439 133.104 19.1199 131.984 19.1199Z" fill="#EFECE6"/>
</svg>
