<svg width="40" height="41" viewBox="0 0 40 41" fill="none" xmlns="http://www.w3.org/2000/svg">
<rect y="0.27002" width="40" height="40" rx="20" fill="#017373"/>
<path d="M29.1666 18.3617C29.2078 17.1689 28.947 15.985 28.4083 14.92C28.0428 14.483 27.5355 14.1881 26.9749 14.0867C24.6562 13.8763 22.3279 13.79 19.9999 13.8283C17.6805 13.7883 15.3605 13.8718 13.0499 14.0783C12.5931 14.1614 12.1704 14.3757 11.8333 14.695C11.0833 15.3867 10.9999 16.57 10.9166 17.57C10.7957 19.368 10.7957 21.172 10.9166 22.97C10.9407 23.5328 11.0245 24.0915 11.1666 24.6367C11.2671 25.0576 11.4704 25.447 11.7583 25.77C12.0977 26.1062 12.5303 26.3327 12.9999 26.42C14.7965 26.6418 16.6068 26.7337 18.4166 26.695C21.3333 26.7367 23.8916 26.695 26.9166 26.4617C27.3978 26.3797 27.8426 26.153 28.1916 25.8117C28.4249 25.5783 28.5992 25.2926 28.6999 24.9783C28.998 24.0639 29.1443 23.1068 29.1333 22.145C29.1666 21.6783 29.1666 18.8617 29.1666 18.3617ZM18.1166 22.645V17.4867L23.0499 20.0783C21.6666 20.845 19.8416 21.7117 18.1166 22.645Z" fill="#EFECE6"/>
</svg>
